<?xml version="1.0" encoding="utf-8"?>
<!-- Generator: Adobe Illustrator 25.0.0, SVG Export Plug-In . SVG Version: 6.00 Build 0)  -->
<svg version="1.1" id="Camada_1" xmlns="http://www.w3.org/2000/svg" xmlns:xlink="http://www.w3.org/1999/xlink" x="0px" y="0px"
	 viewBox="0 0 24 24" style="enable-background:new 0 0 24 24;" xml:space="preserve">
<style type="text/css">
	.st0{fill:#B6B6B6;}
</style>
<path class="st0" d="M12,3C6.5,3,2,7.5,2,13v7c0,0.6,0.4,1,1,1h3c1.7,0,3-1.3,3-3v-2c0-1.7-1.3-3-3-3H4c0-4.4,3.6-8,8-8s8,3.6,8,8
	h-2c-1.7,0-3,1.3-3,3v2c0,1.7,1.3,3,3,3h3c0.6,0,1-0.4,1-1v-7C22,7.5,17.5,3,12,3z M6,15c0.6,0,1,0.4,1,1v2c0,0.6-0.4,1-1,1H4v-4H6z
	 M20,19h-2c-0.6,0-1-0.4-1-1v-2c0-0.6,0.4-1,1-1h2V19z"/>
</svg>
