<?xml version="1.0" encoding="utf-8"?>
<!-- Generator: Adobe Illustrator 25.0.0, SVG Export Plug-In . SVG Version: 6.00 Build 0)  -->
<svg version="1.1" id="Camada_1" xmlns="http://www.w3.org/2000/svg" xmlns:xlink="http://www.w3.org/1999/xlink" x="0px" y="0px"
	 viewBox="0 0 24 24" style="enable-background:new 0 0 24 24;" xml:space="preserve">
<style type="text/css">
	.st0{fill:#B6B6B6;}
</style>
<path class="st0" d="M19.1,5.9c-2.4-2.5-6-3.5-9.4-2.7C9.1,3.4,8.8,3.9,8.9,4.5C9,5,9.6,5.3,10.1,5.2c4.3-1,8.6,1.6,9.7,5.9
	c0.1,0.6,0.2,1.2,0.2,1.8h-0.3c-0.6,0-1,0.4-1,1s0.4,1,1,1H20v0.3c0,0.6,0.4,1,1,1s1-0.4,1-1V13C22,10.3,21,7.8,19.1,5.9z M3.7,2.3
	c-0.4-0.4-1-0.4-1.4,0c-0.4,0.4-0.4,1,0,1.4l2.4,2.4C3,8,2,10.4,2,13v7c0,0.6,0.4,1,1,1h3c1.7,0,3-1.3,3-3v-2c0-1.7-1.3-3-3-3H4
	c0-2,0.8-4,2.1-5.4l8.9,8.9V18c0,1.7,1.3,3,3,3h1.6l0.7,0.7c0.4,0.4,1,0.4,1.4,0c0.4-0.4,0.4-1,0-1.4L3.7,2.3z M6,15
	c0.6,0,1,0.4,1,1v2c0,0.6-0.4,1-1,1H4v-4H6z"/>
</svg>
