<?xml version="1.0" encoding="utf-8"?>
<!-- Generator: Adobe Illustrator 25.0.0, SVG Export Plug-In . SVG Version: 6.00 Build 0)  -->
<svg version="1.1" id="Camada_1" xmlns="http://www.w3.org/2000/svg" xmlns:xlink="http://www.w3.org/1999/xlink" x="0px" y="0px"
	 viewBox="0 0 24 24" style="enable-background:new 0 0 24 24;" xml:space="preserve">
<style type="text/css">
	.st0{fill:#B6B6B6;}
</style>
<path class="st0" d="M16,2c-1.7,0-3,1.3-3,3v14c0,1.7,1.3,3,3,3s3-1.3,3-3V5C19,3.3,17.7,2,16,2z M17,19c0,0.6-0.4,1-1,1
	c-0.6,0-1-0.4-1-1V5c0-0.6,0.4-1,1-1c0.6,0,1,0.4,1,1V19z M8,2C6.3,2,5,3.3,5,5v14c0,1.7,1.3,3,3,3s3-1.3,3-3V5C11,3.3,9.7,2,8,2z
	 M9,19c0,0.6-0.4,1-1,1s-1-0.4-1-1V5c0-0.6,0.4-1,1-1s1,0.4,1,1V19z"/>
</svg>
