<?xml version="1.0" encoding="utf-8"?>
<!-- Generator: Adobe Illustrator 25.0.0, SVG Export Plug-In . SVG Version: 6.00 Build 0)  -->
<svg version="1.1" id="Camada_1" xmlns="http://www.w3.org/2000/svg" xmlns:xlink="http://www.w3.org/1999/xlink" x="0px" y="0px"
	 viewBox="0 0 38 38" style="enable-background:new 0 0 38 38;" xml:space="preserve">
<style type="text/css">
	.st0{fill:#B6B6B6;}
</style>
<path class="st0" d="M33.4,23.7h-1c-0.1,0-0.2-0.1-0.2-0.1c-2.1-0.3-3.8-2.1-3.9-4.2c-0.2-2.3,1.2-4.3,3.3-4.9
	c0.3-0.1,0.6-0.1,0.9-0.2h1c0.1,0,0.1,0.1,0.2,0.1c2,0.3,3.5,1.7,3.9,3.7c0,0.1,0.1,0.3,0.1,0.4v1c0,0.1-0.1,0.1-0.1,0.2
	c-0.3,1.9-1.7,3.4-3.6,3.8C33.7,23.6,33.5,23.6,33.4,23.7L33.4,23.7z M4.8,14.3h1c0.1,0,0.2,0.1,0.2,0.1c2.1,0.3,3.8,2.1,3.9,4.2
	c0.1,2.3-1.2,4.3-3.3,4.9c-0.3,0.1-0.6,0.1-0.8,0.2h-1c-0.1,0-0.1-0.1-0.2-0.1c-1.9-0.4-3.2-1.5-3.8-3.3c-0.1-0.2-0.1-0.5-0.2-0.8
	v-1c0-0.1,0.1-0.1,0.1-0.2c0.3-1.9,1.7-3.4,3.6-3.8C4.5,14.4,4.7,14.4,4.8,14.3L4.8,14.3z M18.6,14.3h1c0.1,0,0.2,0.1,0.2,0.1
	c2.1,0.3,3.8,2.2,3.9,4.3c0.1,2.3-1.3,4.3-3.5,4.9c-0.2,0.1-0.5,0.1-0.7,0.2h-1c-0.1,0-0.2-0.1-0.2-0.1c-2.1-0.3-3.8-2.2-3.9-4.3
	c-0.1-2.3,1.3-4.3,3.5-4.9C18.1,14.4,18.4,14.4,18.6,14.3L18.6,14.3z"/>
</svg>
