<?xml version="1.0" encoding="utf-8"?>
<!-- Generator: Adobe Illustrator 25.0.0, SVG Export Plug-In . SVG Version: 6.00 Build 0)  -->
<svg version="1.1" id="Camada_1" xmlns="http://www.w3.org/2000/svg" xmlns:xlink="http://www.w3.org/1999/xlink" x="0px" y="0px"
	 viewBox="0 0 24 24" style="enable-background:new 0 0 24 24;" xml:space="preserve">
<style type="text/css">
	.st0{fill:#B6B6B6;}
</style>
<path class="st0" d="M19,3c-1.7,0-3,1.3-3,3v12c0,1.7,1.3,3,3,3s3-1.3,3-3V6C22,4.3,20.7,3,19,3z M20,18c0,0.6-0.4,1-1,1s-1-0.4-1-1
	V6c0-0.6,0.4-1,1-1s1,0.4,1,1V18z M12.6,5.6c-0.8-0.5-1.8-0.5-2.6,0l-6.7,4c-1.3,0.8-1.7,2.5-0.9,3.8c0.2,0.4,0.5,0.7,0.9,0.9l6.7,4
	c0.8,0.5,1.8,0.5,2.6,0C13.5,17.8,14,17,14,16V8C14,7,13.5,6.1,12.6,5.6z M12,16c0,0.3-0.1,0.5-0.4,0.6c-0.2,0.1-0.4,0.1-0.6,0
	l-6.7-4c-0.4-0.2-0.5-0.7-0.2-1c0.1-0.1,0.1-0.2,0.2-0.2l6.7-4c0.1-0.1,0.2-0.1,0.3-0.1c0.1,0,0.2,0,0.3,0.1C11.9,7.5,12,7.7,12,8
	V16z"/>
</svg>
