<?xml version="1.0" encoding="utf-8"?>
<!-- Generator: Adobe Illustrator 25.0.0, SVG Export Plug-In . SVG Version: 6.00 Build 0)  -->
<svg version="1.1" id="Camada_1" xmlns="http://www.w3.org/2000/svg" xmlns:xlink="http://www.w3.org/1999/xlink" x="0px" y="0px"
	 viewBox="0 0 24 24" style="enable-background:new 0 0 24 24;" xml:space="preserve">
<style type="text/css">
	.st0{fill:#B6B6B6;}
</style>
<path class="st0" d="M5,3C3.3,3,2,4.3,2,6v12c0,1.7,1.3,3,3,3s3-1.3,3-3V6C8,4.3,6.7,3,5,3z M6,18c0,0.6-0.4,1-1,1s-1-0.4-1-1V6
	c0-0.6,0.4-1,1-1s1,0.4,1,1V18z M20.7,9.6l-6.7-4c-0.8-0.5-1.8-0.5-2.6,0C10.5,6.1,10,7,10,8v8c0,1,0.5,1.9,1.4,2.4
	c0.8,0.5,1.8,0.5,2.6,0l6.7-4c1.3-0.8,1.7-2.5,0.9-3.8C21.4,10.2,21.1,9.9,20.7,9.6L20.7,9.6z M19.7,12.6l-6.7,4
	c-0.2,0.1-0.4,0.1-0.6,0C12.1,16.5,12,16.3,12,16V8c0-0.3,0.1-0.5,0.4-0.6c0.1-0.1,0.2-0.1,0.3-0.1c0.1,0,0.2,0,0.3,0.1l6.7,4
	c0.4,0.2,0.5,0.7,0.2,1C19.8,12.5,19.7,12.6,19.7,12.6L19.7,12.6z"/>
</svg>
