<?xml version="1.0" encoding="utf-8"?>
<!-- Generator: Adobe Illustrator 25.0.0, SVG Export Plug-In . SVG Version: 6.00 Build 0)  -->
<svg version="1.1" id="Camada_1" xmlns="http://www.w3.org/2000/svg" xmlns:xlink="http://www.w3.org/1999/xlink" x="0px" y="0px"
	 viewBox="0 0 24 24" style="enable-background:new 0 0 24 24;" xml:space="preserve">
<style type="text/css">
	.st0{fill:#B6B6B6;}
</style>
<path class="st0" d="M18.5,9L8.9,3.5C7.2,2.5,5.2,3.1,4.2,4.7C3.9,5.2,3.7,5.8,3.8,6.5v11.1c0,1.9,1.5,3.4,3.4,3.4
	c0.6,0,1.2-0.2,1.7-0.5l9.7-5.5c1.6-0.9,2.2-3,1.2-4.7C19.5,9.8,19.1,9.4,18.5,9L18.5,9z M17.5,13.2l-9.7,5.6c-0.4,0.2-1,0.2-1.4,0
	c-0.4-0.3-0.7-0.7-0.7-1.2V6.4c0-0.5,0.3-1,0.7-1.2C6.7,5.1,6.9,5,7.2,5c0.2,0,0.5,0.1,0.7,0.2l9.7,5.6c0.7,0.4,0.9,1.3,0.5,1.9
	C17.9,12.9,17.8,13.1,17.5,13.2L17.5,13.2z"/>
</svg>
